<?xml version="1.0" encoding="UTF-8" standalone="no"?>
<!-- Generator: Adobe Illustrator 19.0.0, SVG Export Plug-In . SVG Version: 6.00 Build 0)  -->

<svg
   xmlns:dc="http://purl.org/dc/elements/1.1/"
   xmlns:cc="http://creativecommons.org/ns#"
   xmlns:rdf="http://www.w3.org/1999/02/22-rdf-syntax-ns#"
   xmlns:svg="http://www.w3.org/2000/svg"
   xmlns="http://www.w3.org/2000/svg"
   xmlns:sodipodi="http://sodipodi.sourceforge.net/DTD/sodipodi-0.dtd"
   xmlns:inkscape="http://www.inkscape.org/namespaces/inkscape"
   version="1.1"
   id="Layer_1"
   x="0px"
   y="0px"
   viewBox="0 0 512.001 512.001"
   style="enable-background:new 0 0 512.001 512.001;"
   xml:space="preserve"
   sodipodi:docname="coffee.svg"
   inkscape:version="0.92.1 r15371"><metadata
     id="metadata61"><rdf:RDF><cc:Work
         rdf:about=""><dc:format>image/svg+xml</dc:format><dc:type
           rdf:resource="http://purl.org/dc/dcmitype/StillImage" /></cc:Work></rdf:RDF></metadata><defs
     id="defs59" /><sodipodi:namedview
     pagecolor="#ffffff"
     bordercolor="#666666"
     borderopacity="1"
     objecttolerance="10"
     gridtolerance="10"
     guidetolerance="10"
     inkscape:pageopacity="0"
     inkscape:pageshadow="2"
     inkscape:window-width="1280"
     inkscape:window-height="1005"
     id="namedview57"
     showgrid="false"
     inkscape:snap-bbox="true"
     inkscape:snap-global="true"
     inkscape:zoom="1.8437465"
     inkscape:cx="235.41264"
     inkscape:cy="196.71244"
     inkscape:window-x="-4"
     inkscape:window-y="-4"
     inkscape:window-maximized="1"
     inkscape:current-layer="g22" /><g
     id="g6"
     transform="matrix(1.3958984,0,0,1,-73.526426,0)"><g
       id="g4"><path
         d="M 212.742,97.49 C 206.118,83.074 199.86,69.458 206.73,43.079 c 1.257,-4.827 -1.637,-9.76 -6.465,-11.018 -4.826,-1.259 -9.76,1.637 -11.016,6.465 -8.494,32.618 0.141,51.41 7.081,66.508 6.81,14.815 11.729,25.521 0.017,47.829 -2.318,4.416 -0.618,9.877 3.799,12.197 1.339,0.703 2.776,1.037 4.191,1.037 3.248,0 6.389,-1.758 8.004,-4.836 15.841,-30.175 7.992,-47.254 0.401,-63.771 z"
         id="path2"
         inkscape:connector-curvature="0" /></g></g><g
     id="g12"
     transform="matrix(1.6770225,0,0,1,-174.10844,0)"><g
       id="g10"><path
         d="m 284.521,82.947 c -6.571,-18.206 -13.367,-37.032 -6.194,-72.102 1,-4.887 -2.152,-9.66 -7.04,-10.66 -4.884,-1.002 -9.66,2.153 -10.66,7.04 -8.191,40.046 -0.175,62.259 6.9,81.855 6.929,19.194 12.4,34.353 -0.046,64.539 -1.902,4.612 0.295,9.893 4.907,11.793 1.127,0.465 2.293,0.684 3.44,0.684 3.549,0 6.917,-2.106 8.355,-5.592 15.108,-36.638 7.6,-57.44 0.338,-77.557 z"
         id="path8"
         inkscape:connector-curvature="0" /></g></g><g
     id="g18"><g
       id="g16"><path
         d="M 307.625,493.936 H 102.119 c -25.207,0 -47.8,-15.017 -57.559,-38.259 L 40.153,445.18 h 121.718 c 4.99,0 9.033,-4.044 9.033,-9.033 0,-4.989 -4.043,-9.033 -9.033,-9.033 H 127.784 C 84.846,393.631 60.285,343.431 60.285,288.907 v -78.936 h 39.8 c 4.99,0 9.033,-4.044 9.033,-9.033 0,-4.988 -4.043,-9.033 -9.033,-9.033 H 51.252 c -4.99,0 -9.033,4.044 -9.033,9.033 v 87.968 c 0,30.866 7.061,60.365 20.989,87.679 9.519,18.671 22.195,35.812 37.227,50.529 H 26.564 c -3.025,0 -5.847,1.514 -7.522,4.032 -1.674,2.518 -1.978,5.709 -0.806,8.497 l 9.667,23.026 C 40.485,492.636 69.616,512 102.119,512 h 205.506 c 4.99,0 9.033,-4.044 9.033,-9.033 0,-4.987 -4.045,-9.031 -9.033,-9.031 z"
         id="path14"
         inkscape:connector-curvature="0" /></g></g><g
     id="g24"><g
       id="g22"><path
         d="m 390.988,403.741 c 4.253,0.608 8.544,0.938 12.829,0.938 49.986,0 90.654,-40.667 90.654,-90.653 0,-40.579 -27.196,-76.09 -65.645,-87.126 v -25.961 c 0,-4.989 -4.043,-9.033 -9.033,-9.033 H 136.215 c -4.99,0 -9.033,4.044 -9.033,9.033 0,4.988 4.043,9.033 9.033,9.033 H 410.76 v 24.013 40.915 14.007 c 0,21.882 -3.965,43.065 -11.476,62.752 -0.219,0.382 -0.414,0.78 -0.578,1.198 -4.955,12.635 -11.403,24.705 -19.161,35.877 -0.249,0.359 -0.461,0.735 -0.654,1.12 -9.825,13.883 -21.762,26.448 -35.628,37.261 H 202.821 c -4.99,0 -9.033,4.044 -9.033,9.033 0,4.988 4.043,9.033 9.033,9.033 h 228.071 l -4.407,10.497 c -9.759,23.241 -32.351,38.259 -57.558,38.259 h -25.17 c -4.99,0 -9.033,4.044 -9.033,9.033 0,4.989 4.043,9.033 9.033,9.033 h 25.17 c 32.501,0 61.632,-19.364 74.214,-49.331 l 9.666,-23.026 c 1.172,-2.788 0.868,-5.978 -0.806,-8.497 -1.675,-2.518 -4.498,-4.032 -7.522,-4.032 H 370.61 c 7.396,-7.243 14.222,-15.065 20.378,-23.376 z M 428.78,292.093 c 5.229,5.935 8.275,13.656 8.275,21.933 0,11.74 -6.245,22.228 -15.651,28.148 4.633,-16.165 7.103,-32.905 7.376,-50.081 z m -20.944,84.492 c 2.047,-4.017 3.929,-8.085 5.679,-12.194 23.742,-4.586 41.604,-25.69 41.604,-50.365 0,-18.811 -10.142,-35.789 -26.295,-44.787 V 245.88 c 28.13,10.341 47.581,37.434 47.581,68.146 0,40.025 -32.563,72.587 -72.589,72.587 -0.493,0 -0.984,-0.006 -1.477,-0.016 1.932,-3.285 3.768,-6.622 5.497,-10.012 z"
         id="path20"
         inkscape:connector-curvature="0"
         inkscape:label="path20"
         style="display:inline;stroke-width:10;stroke-miterlimit:4;stroke-dasharray:none" /></g></g><g
     id="g26" /><g
     id="g28" /><g
     id="g30" /><g
     id="g32" /><g
     id="g34" /><g
     id="g36" /><g
     id="g38" /><g
     id="g40" /><g
     id="g42" /><g
     id="g44" /><g
     id="g46" /><g
     id="g48" /><g
     id="g50" /><g
     id="g52" /><g
     id="g54" /></svg>