<?xml version="1.0" encoding="iso-8859-1"?>
<!-- Generator: Adobe Illustrator 19.0.0, SVG Export Plug-In . SVG Version: 6.00 Build 0)  -->
<svg version="1.1" id="Layer_1" xmlns="http://www.w3.org/2000/svg" xmlns:xlink="http://www.w3.org/1999/xlink" x="0px" y="0px"
	 viewBox="0 0 512 512" style="enable-background:new 0 0 512 512;" xml:space="preserve">
<g>
	<g>
		<path d="M254.926,48.383h-0.075c-5.523,0-9.962,4.477-9.962,10s4.515,10,10.038,10s9.999-4.477,9.999-10
			S260.449,48.383,254.926,48.383z"/>
	</g>
</g>
<g>
	<g>
		<path d="M293.265,382.644l-0.101-0.103c-3.878-3.934-10.209-3.98-14.142-0.102c-3.934,3.877-3.979,10.209-0.102,14.142
			l0.101,0.103c1.957,1.985,4.539,2.98,7.122,2.98c2.535,0,5.072-0.958,7.02-2.878C297.097,392.909,297.142,386.577,293.265,382.644
			z"/>
	</g>
</g>
<g>
	<g>
		<path d="M302.764,338c-0.001,0,0,0-0.001,0c-16.813,0-31.339,12.53-33.786,29.145c-0.805,5.464,2.972,10.545,8.436,11.35
			c5.461,0.802,10.545-2.972,11.35-8.436c1.013-6.876,7.032-12.06,14.001-12.06c7.803,0,14.152,6.348,14.152,14.15
			c-0.001,6.938-4.953,12.807-11.777,13.954c-5.446,0.916-9.12,6.074-8.204,11.52c0.822,4.886,5.056,8.344,9.85,8.344
			c0.551,0,1.109-0.045,1.67-0.139c16.491-2.772,28.461-16.935,28.461-33.678C336.915,353.319,321.594,338,302.764,338z"/>
	</g>
</g>
<g>
	<g>
		<path d="M242.28,241.058l-0.046-0.046c-3.86-3.951-10.192-4.023-14.141-0.163c-3.95,3.86-4.023,10.191-0.163,14.141l0.207,0.21
			c1.952,1.953,4.512,2.929,7.071,2.929c2.56,0,5.119-0.976,7.072-2.928C246.185,251.295,246.185,244.963,242.28,241.058z"/>
	</g>
</g>
<g>
	<g>
		<path d="M255.965,186.099C255.964,186.099,255.965,186.099,255.965,186.099c-19.773,0-36.854,14.733-39.731,34.271
			c-0.805,5.464,2.972,10.546,8.436,11.35c5.456,0.807,10.546-2.972,11.35-8.436c1.443-9.798,10.018-17.186,19.946-17.186
			c11.117-0.001,20.161,9.043,20.161,20.159c0,9.884-7.058,18.245-16.783,19.88c-5.447,0.916-9.12,6.074-8.204,11.52
			c0.822,4.886,5.056,8.344,9.85,8.344c0.55,0,1.109-0.045,1.669-0.139c19.391-3.261,33.467-19.916,33.467-39.604
			C296.126,204.114,278.109,186.099,255.965,186.099z"/>
	</g>
</g>
<g>
	<g>
		<path d="M197.913,347.061c-8.271,0-15,6.729-15,15s6.729,15,15,15s15-6.729,15-15S206.184,347.061,197.913,347.061z"/>
	</g>
</g>
<g>
	<g>
		<path d="M240.927,126c-8.271,0-15,6.729-15,15s6.729,15,15,15s15-6.729,15-15S249.198,126,240.927,126z"/>
	</g>
</g>
<g>
	<g>
		<path d="M171.579,405.089c-17.277,0-31.333,14.056-31.333,31.333c0,17.277,14.056,31.333,31.333,31.333
			c17.277,0,31.333-14.056,31.333-31.333C202.912,419.145,188.856,405.089,171.579,405.089z M171.579,447.754
			c-6.249,0-11.333-5.084-11.333-11.333c0-6.249,5.083-11.333,11.333-11.333s11.333,5.084,11.333,11.333
			C182.912,442.67,177.828,447.754,171.579,447.754z"/>
	</g>
</g>
<g>
	<g>
		<path d="M467.529,434.032L326,224.687V68.383h1.808c18.854,0,34.192-15.338,34.192-34.191C362,15.338,346.662,0,327.808,0H184.192
			C165.338,0,150,15.338,150,34.192c0,18.853,15.338,34.191,34.192,34.191H186v156.304L44.472,434.032
			c-10.538,15.586-11.561,34.813-2.737,51.43C50.559,502.079,67.06,512,85.875,512h340.25c18.815,0,35.316-9.921,44.14-26.538
			C479.089,468.845,478.066,449.618,467.529,434.032z M204.284,233.351c1.118-1.654,1.716-3.604,1.716-5.601V68.383h10.671
			c5.523,0,10-4.477,10-10s-4.477-10-10-10h-32.479c-7.826,0-14.192-6.366-14.192-14.192C170,26.366,176.366,20,184.192,20h143.616
			C335.634,20,342,26.367,342,34.192s-6.366,14.191-14.192,14.191h-32.137c-5.523,0-10,4.477-10,10s4.477,10,10,10H306V227.75
			c0,1.996,0.598,3.947,1.716,5.601l42.263,62.515c-10.065,3.595-21.029,6.18-36.9,6.18c-23.174,0-37.009-5.583-51.657-11.493
			c-15.138-6.108-30.791-12.425-55.75-12.425c-13.942,0-25.079,1.968-34.886,4.772L204.284,233.351z M452.601,476.082
			c-5.293,9.967-15.19,15.918-26.476,15.918H85.875c-11.286,0-21.183-5.951-26.476-15.918c-5.293-9.967-4.679-21.5,1.641-30.849
			l90.669-134.115c1.57-0.615,3.132-1.235,4.691-1.855c14.389-5.727,27.98-11.136,49.273-11.136c21.076,0,34.283,5.33,48.266,10.972
			c15.773,6.365,32.083,12.946,59.141,12.946c21.442,0,35.552-4.117,48.422-9.135l89.458,132.323
			C457.28,454.583,457.894,466.115,452.601,476.082z"/>
	</g>
</g>
<g>
</g>
<g>
</g>
<g>
</g>
<g>
</g>
<g>
</g>
<g>
</g>
<g>
</g>
<g>
</g>
<g>
</g>
<g>
</g>
<g>
</g>
<g>
</g>
<g>
</g>
<g>
</g>
<g>
</g>
</svg>
